<?xml version="1.0" standalone="no"?>
<!DOCTYPE svg PUBLIC "-//W3C//DTD SVG 20010904//EN"
 "http://www.w3.org/TR/2001/REC-SVG-20010904/DTD/svg10.dtd">
<svg version="1.0" xmlns="http://www.w3.org/2000/svg"
 width="100.000000pt" height="64.500000pt" viewBox="0 0 200.000000 129.000000"
 preserveAspectRatio="xMidYMid meet">
<g transform="translate(0.000000,129.000000) scale(0.100000,-0.100000)"
fill="#ffffff" stroke="none">
<path d="M1705 1249 c-4 -6 -8 -28 -9 -50 -1 -35 3 -42 43 -72 27 -20 51 -49
62 -75 23 -54 24 -63 1 -88 -10 -10 -31 -44 -48 -74 -31 -59 -58 -74 -147 -86
-21 -2 -46 -11 -54 -19 -8 -8 -18 -13 -23 -10 -4 2 -28 -14 -54 -36 l-46 -40
-38 40 c-37 39 -77 53 -96 34 -4 -5 -33 -13 -64 -19 -31 -6 -65 -14 -74 -19
-16 -6 -18 -1 -18 37 0 38 4 47 25 58 35 19 71 78 57 92 -8 8 -14 5 -21 -13
-5 -13 -23 -36 -40 -52 l-31 -27 -23 21 c-28 26 -99 59 -129 59 -34 0 -48 31
-55 120 -3 44 -9 80 -13 80 -6 0 -130 -135 -147 -159 -1 -2 -9 1 -16 8 -32 26
-205 7 -300 -33 -28 -12 -42 -14 -57 -6 -11 6 -20 14 -20 19 0 12 -63 91 -74
91 -5 0 -7 -41 -4 -97 5 -87 3 -99 -14 -117 -30 -31 -48 -80 -48 -128 l0 -43
-75 3 c-64 4 -75 2 -75 -12 0 -13 13 -16 75 -16 l75 0 0 -34 c0 -34 -2 -36
-58 -52 -84 -24 -146 -54 -134 -66 6 -6 23 -3 48 10 22 11 55 23 74 27 19 4
46 13 60 20 20 11 28 10 47 -2 l23 -15 -37 -20 c-21 -11 -62 -38 -90 -59 -29
-22 -65 -44 -80 -50 -35 -13 -64 -39 -57 -50 6 -10 76 28 149 81 75 55 146 91
159 82 6 -5 38 -17 71 -28 34 -10 70 -30 82 -44 12 -14 38 -43 58 -65 l36 -40
-5 -80 c-7 -101 -7 -105 -18 -105 -5 0 -8 -21 -6 -47 3 -43 6 -48 28 -51 34
-4 96 44 110 84 14 40 47 58 81 45 36 -13 59 -39 59 -65 0 -32 40 -66 78 -66
43 0 64 42 71 140 l6 75 40 6 c22 3 55 13 73 22 38 21 41 11 6 -22 -17 -16
-24 -33 -22 -50 3 -23 8 -26 50 -29 40 -3 52 1 73 22 14 14 25 37 25 51 0 14
11 34 25 47 14 12 25 28 25 35 0 9 14 13 40 13 39 0 40 -1 40 -35 0 -43 23
-90 49 -105 55 -29 109 -1 145 74 21 44 20 68 -3 119 -56 123 -62 157 -38 200
18 32 47 57 68 57 10 0 21 5 24 10 3 6 13 10 22 10 24 0 196 88 236 121 36 30
95 139 104 193 6 39 -30 155 -66 213 -15 25 -38 47 -55 53 -38 13 -133 13
-141 -1z m166 -48 c36 -44 73 -162 67 -216 -7 -58 -55 -151 -92 -180 -33 -25
-188 -100 -271 -132 -70 -26 -98 -70 -92 -143 2 -30 16 -81 30 -112 30 -64 33
-94 13 -141 -30 -73 -70 -85 -118 -36 -28 28 -30 34 -25 80 6 47 5 49 -16 45
-12 -3 -51 -8 -86 -11 -57 -6 -199 -54 -225 -77 -6 -4 -22 -8 -37 -8 -53 0
-59 -7 -59 -76 0 -73 -24 -144 -49 -144 -30 0 -61 30 -61 59 0 40 -49 81 -97
81 -39 0 -83 -31 -83 -59 0 -23 -51 -71 -77 -71 -17 0 -23 6 -23 23 0 13 5 28
11 34 7 7 14 56 16 110 l5 98 -34 37 c-18 20 -38 45 -45 56 -11 19 -10 19 30
10 59 -14 90 -18 193 -24 80 -6 96 -4 145 17 63 26 158 96 183 133 15 24 23
26 81 26 81 0 86 18 6 22 l-59 3 15 36 14 36 74 -1 c45 -1 74 3 72 9 -1 6 -32
10 -70 10 -37 0 -67 2 -67 5 0 8 69 28 144 41 l70 12 29 -37 c35 -44 57 -45
101 -6 42 38 102 70 136 71 14 0 48 8 75 18 46 16 53 23 85 84 19 36 41 72 48
79 31 31 -6 129 -67 179 -34 27 -41 38 -41 67 l0 34 62 -4 c55 -4 64 -8 89
-37z m-972 -186 c0 -69 18 -107 56 -119 79 -23 155 -65 155 -85 0 -4 -18 -14
-40 -21 -41 -14 -54 -30 -22 -30 9 0 29 7 45 14 l27 15 0 -44 0 -44 -67 -3
c-84 -4 -86 -23 -3 -22 33 0 60 0 60 -1 0 -2 -7 -19 -15 -39 -15 -35 -17 -36
-70 -36 -67 0 -73 -18 -7 -22 l47 -3 -31 -30 c-47 -45 -73 -63 -143 -97 -57
-27 -70 -30 -135 -25 -39 2 -112 12 -163 21 -112 21 -251 64 -210 65 15 1 27
6 27 12 0 8 -17 10 -54 6 -37 -4 -60 -1 -72 8 -16 11 -12 14 39 20 31 4 57 11
57 16 0 12 -56 11 -98 0 -31 -9 -32 -9 -32 20 0 27 3 29 35 29 26 0 35 4 35
16 0 13 -7 15 -36 11 l-36 -6 7 52 c8 67 14 87 25 87 24 0 39 58 33 129 -3 39
-3 71 0 71 3 0 15 -16 28 -36 25 -40 110 -86 102 -54 -7 25 217 70 275 55 23
-6 30 -29 12 -40 -15 -9 -12 -25 4 -25 8 0 17 8 20 18 3 10 24 38 47 62 22 25
52 60 66 78 14 17 27 32 28 32 2 0 4 -25 4 -55z m351 -690 c0 -2 -11 -15 -25
-29 -14 -14 -25 -36 -25 -49 0 -30 -19 -47 -59 -52 -42 -5 -45 6 -11 46 16 19
29 40 30 47 0 18 90 55 90 37z"/>
<path d="M722 769 c5 -75 70 -81 76 -7 3 33 1 36 -29 42 -49 10 -50 9 -47 -35z"/>
<path d="M446 699 c-9 -46 -8 -49 17 -49 37 0 48 13 41 48 -5 25 -12 32 -29
32 -17 0 -24 -7 -29 -31z"/>
<path d="M610 622 c-26 -21 -20 -42 13 -42 l22 -1 -24 -19 c-26 -22 -61 -26
-79 -8 -15 15 -26 4 -19 -17 8 -20 90 -21 106 -1 9 11 32 13 100 9 74 -5 90
-3 105 12 11 12 14 21 7 28 -6 6 -15 4 -26 -7 -17 -17 -55 -20 -117 -10 -35 6
-38 9 -38 40 0 39 -16 44 -50 16z"/>
</g>
</svg>
